<svg width="550" height="108" viewBox="0 0 550 108" fill="none" xmlns="http://www.w3.org/2000/svg">
<path d="M39.1094 48.4727L39.1094 39.4311C29.4699 50.8638 7.27691 31.5851 1.14969 37.7872C-3.10969 42.3453 5.25992 51.703 13.4044 62.1471C13.4044 62.1471 4.13864 60.6526 2.64416 64.6877C-0.0458917 69.6195 18.6059 81.0688 39.1094 79.7072L39.1094 74.0282L32.9073 75.448L32.9073 65.5097L39.1094 66.6305L39.1094 55.8703L32.9073 57.2901L32.9073 46.754L39.1094 48.4727Z" fill="white"/>
<path d="M45.4674 38.3582C50.3731 31.154 54.9095 27.7085 60.4244 28.2341C63.177 28.4966 66.1644 29.748 69.5524 31.9978C72.9407 34.2479 76.7354 37.5002 81.1031 41.7703L81.1324 41.7986L81.1237 41.8386C78.7687 53.165 75.2646 61.8888 69.65 68.155C64.0338 74.4231 56.3128 78.2251 45.5397 79.7214L45.4547 79.7332V72.9402L39.1461 74.3269L39.0553 74.3464V66.4675L39.1442 66.4841L45.4547 67.6755V54.7839L39.1481 56.3181L39.0553 56.3406V47.8533L39.15 47.8787L45.4547 49.5857V38.3767L45.4674 38.3582ZM61.9684 41.3884C59.9876 41.3885 58.3815 42.9945 58.3815 44.9753C58.3816 46.9561 59.9876 48.5621 61.9684 48.5623C63.9492 48.5623 65.5552 46.9562 65.5553 44.9753C65.5553 42.9944 63.9493 41.3884 61.9684 41.3884Z" fill="white"/>
<path d="M98.7937 74L99.4908 68.4229V30.7774L98.7937 25.2002H117.407C121.079 25.2002 124.1 25.8741 126.47 27.222C128.887 28.5698 130.676 30.3823 131.838 32.6596C133.046 34.937 133.651 37.5164 133.651 40.3979C133.651 42.3964 133.372 44.3251 132.814 46.1841C132.256 47.9967 131.327 49.6466 130.026 51.1338C128.771 52.5746 127.098 53.7132 125.006 54.5498C122.961 55.3864 120.428 55.8047 117.407 55.8047H109.111V68.4229L109.808 74H98.7937ZM109.111 47.5784H115.455C118.476 47.5784 120.591 46.9975 121.799 45.8356C123.008 44.6272 123.612 42.8843 123.612 40.607C123.612 38.2832 123.008 36.5171 121.799 35.3088C120.591 34.1004 118.476 33.4962 115.455 33.4962H109.111V47.5784ZM158.584 74L157.539 68.9109V52.6675C157.539 51.0409 157.376 49.6698 157.051 48.5544C156.772 47.439 156.005 46.6024 154.75 46.0447C153.542 45.4405 151.543 45.1384 148.755 45.1384C147.174 45.1384 145.664 45.2779 144.223 45.5567C142.829 45.7891 141.342 46.2306 139.762 46.8813L138.367 46.1841V39.2127C140.412 38.5156 142.387 38.0741 144.293 37.8882C146.198 37.7023 147.848 37.6093 149.243 37.6093C153.937 37.6093 157.539 38.167 160.048 39.2825C162.604 40.3514 164.371 41.9781 165.347 44.1624C166.323 46.3003 166.811 48.9959 166.811 52.2493V68.4229L167.368 74H158.584ZM148.824 74.8366C146.64 74.8366 144.502 74.5112 142.411 73.8606C140.366 73.1634 138.669 71.9783 137.322 70.3052C135.974 68.5856 135.3 66.1688 135.3 63.0549C135.3 60.5452 135.741 58.5467 136.624 57.0595C137.554 55.5258 138.739 54.3871 140.18 53.6435C141.621 52.8999 143.201 52.4119 144.92 52.1795C146.64 51.9007 148.336 51.7613 150.009 51.7613C150.8 51.7613 151.659 51.7845 152.589 51.831C153.518 51.831 154.471 51.8774 155.447 51.9704L161.582 55.0378V59.6389C160.281 58.9883 158.886 58.5467 157.399 58.3144C155.912 58.0355 154.216 57.8961 152.31 57.8961C149.521 57.8961 147.546 58.2447 146.384 58.9418C145.222 59.5925 144.641 60.8705 144.641 62.7761C144.641 64.7745 145.199 66.1223 146.315 66.8195C147.477 67.4701 149.173 67.7955 151.404 67.7955C154.518 67.7955 156.841 67.3307 158.375 66.4012C159.955 65.4717 161.094 64.3562 161.791 63.0549L162.14 65.5646L154.611 74.1394C153.635 74.3718 152.659 74.5345 151.683 74.6274C150.707 74.7669 149.754 74.8366 148.824 74.8366ZM175.759 63.4035V33.4265L175.41 28.5465H185.449L185.101 33.4265V62.4275C185.101 64.1006 185.472 65.2625 186.216 65.9132C186.96 66.5174 188.261 66.8195 190.12 66.8195C191.189 66.8195 192.095 66.7265 192.839 66.5406C193.629 66.3547 194.373 66.0991 195.07 65.7738L196.464 66.4709V73.7909C195.442 74.0697 194.256 74.3021 192.909 74.488C191.607 74.7204 190.213 74.8366 188.726 74.8366C186.216 74.8366 183.985 74.488 182.033 73.7909C180.081 73.0472 178.548 71.8389 177.432 70.1657C176.317 68.4461 175.759 66.192 175.759 63.4035ZM169.764 46.7419V38.4459H172.97L180.36 40.5373L187.889 38.4459H195.07V46.7419L191.584 46.3933H173.249L169.764 46.7419ZM210.425 33.6356C208.938 33.6356 207.683 33.1709 206.661 32.2414C205.638 31.2654 205.127 29.964 205.127 28.3374C205.127 26.7107 205.638 25.4326 206.661 24.5031C207.683 23.5271 208.938 23.0391 210.425 23.0391C211.913 23.0391 213.167 23.5271 214.19 24.5031C215.212 25.4326 215.724 26.7107 215.724 28.3374C215.724 29.964 215.212 31.2654 214.19 32.2414C213.167 33.1709 211.913 33.6356 210.425 33.6356ZM205.685 74L206.382 68.4229V46.2539H198.435V38.4459H216.421L215.724 44.023V68.4229L216.421 74H205.685ZM221.38 56.2927C221.38 51.738 222.124 48.1129 223.611 45.4173C225.145 42.6752 227.19 40.7 229.746 39.4916C232.349 38.2368 235.277 37.6093 238.53 37.6093C242.248 37.6093 245.292 38.3065 247.662 39.7007C250.033 41.0485 251.775 42.9308 252.891 45.3476C254.006 47.7643 254.564 50.5761 254.564 53.783C254.564 54.8054 254.518 55.7814 254.425 56.7109C254.332 57.6405 254.215 58.7094 254.076 59.9178H227.933V57.8264L234.208 53.3647H245.641C245.641 51.5056 245.432 49.9952 245.013 48.8333C244.595 47.6249 243.851 46.7419 242.782 46.1841C241.713 45.58 240.18 45.2779 238.181 45.2779C236.415 45.2779 234.998 45.58 233.929 46.1841C232.86 46.7419 232.07 47.7643 231.558 49.2516C231.094 50.7388 230.861 52.8767 230.861 55.6652C230.861 58.082 231.047 60.0572 231.419 61.5909C231.791 63.0782 232.372 64.2168 233.162 65.0069C233.998 65.797 235.091 66.3315 236.438 66.6103C237.833 66.8892 239.506 67.0286 241.458 67.0286C243.084 67.0286 244.688 66.9357 246.268 66.7498C247.848 66.5174 249.498 66.0294 251.218 65.2858L252.612 65.9829V73.0937C251.311 73.605 249.823 74.0232 248.15 74.3486C246.477 74.6739 244.339 74.8366 241.737 74.8366C238.995 74.8366 236.392 74.5809 233.929 74.0697C231.512 73.5585 229.351 72.6522 227.445 71.3509C225.586 70.0031 224.099 68.1208 222.984 65.704C221.915 63.2408 221.38 60.1037 221.38 56.2927ZM283.447 74L284.145 68.4229V51.6915C284.145 49.5072 283.471 47.9038 282.123 46.8813C280.821 45.8588 278.73 45.3476 275.849 45.3476C274.361 45.3476 273.06 45.4638 271.945 45.6961C270.876 45.9285 269.946 46.2539 269.156 46.6721C268.412 47.0904 267.762 47.5784 267.204 48.1361V44.4413L273.548 38.167C274.431 37.9811 275.314 37.8417 276.197 37.7488C277.127 37.6558 278.103 37.6093 279.125 37.6093C281.635 37.6093 283.982 38.0276 286.166 38.8642C288.351 39.6543 290.117 41.0718 291.464 43.1167C292.812 45.1152 293.486 47.9502 293.486 51.6218V68.4229L294.183 74H283.447ZM259.187 74L259.884 68.4229V43.8836L259.187 38.4459H267.553L269.226 42.559V68.4229L269.923 74H259.187ZM303.014 63.4035V33.4265L302.666 28.5465H312.704L312.356 33.4265V62.4275C312.356 64.1006 312.728 65.2625 313.471 65.9132C314.215 66.5174 315.516 66.8195 317.375 66.8195C318.444 66.8195 319.35 66.7265 320.094 66.5406C320.884 66.3547 321.628 66.0991 322.325 65.7738L323.719 66.4709V73.7909C322.697 74.0697 321.512 74.3021 320.164 74.488C318.862 74.7204 317.468 74.8366 315.981 74.8366C313.471 74.8366 311.24 74.488 309.288 73.7909C307.336 73.0472 305.803 71.8389 304.687 70.1657C303.572 68.4461 303.014 66.192 303.014 63.4035ZM297.019 46.7419V38.4459H300.226L307.615 40.5373L315.144 38.4459H322.325V46.7419L318.839 46.3933H300.504L297.019 46.7419ZM342.282 74.8366C339.214 74.8366 336.472 74.1394 334.055 72.7451C331.685 71.3044 329.803 69.1897 328.409 66.4012C327.061 63.6126 326.387 60.2199 326.387 56.2229C326.387 52.0866 327.084 48.6474 328.478 45.9053C329.919 43.1167 331.848 41.0485 334.264 39.7007C336.681 38.3065 339.354 37.6093 342.282 37.6093C343.118 37.6093 344.071 37.679 345.14 37.8185C346.209 37.9114 347.394 38.1206 348.695 38.4459L357.758 47.0207V51.1338C357.061 50.2508 356.108 49.391 354.9 48.5544C353.738 47.6714 352.274 46.9278 350.508 46.3236C348.788 45.7194 346.72 45.4173 344.303 45.4173C342.537 45.4173 341.027 45.6961 339.772 46.2539C338.517 46.7651 337.541 47.8108 336.844 49.391C336.193 50.9247 335.868 53.202 335.868 56.2229C335.868 60.1734 336.542 62.962 337.89 64.5886C339.237 66.2153 341.538 67.0286 344.791 67.0286C346.976 67.0286 348.788 66.773 350.229 66.2618C351.716 65.704 352.925 65.0534 353.854 64.3098C354.83 63.5197 355.597 62.8225 356.155 62.2183V64.9372L348.904 74C348.021 74.1859 346.999 74.3718 345.837 74.5577C344.675 74.7436 343.49 74.8366 342.282 74.8366ZM352.808 74L351.763 68.9806V28.8254L351.066 23.2483H361.801L361.104 28.8254V68.4229L361.801 74H352.808ZM366.54 56.2927C366.54 51.738 367.284 48.1129 368.771 45.4173C370.305 42.6752 372.35 40.7 374.906 39.4916C377.509 38.2368 380.437 37.6093 383.69 37.6093C387.408 37.6093 390.452 38.3065 392.823 39.7007C395.193 41.0485 396.936 42.9308 398.051 45.3476C399.167 47.7643 399.724 50.5761 399.724 53.783C399.724 54.8054 399.678 55.7814 399.585 56.7109C399.492 57.6405 399.376 58.7094 399.236 59.9178H373.094V57.8264L379.368 53.3647H390.801C390.801 51.5056 390.592 49.9952 390.173 48.8333C389.755 47.6249 389.012 46.7419 387.943 46.1841C386.874 45.58 385.34 45.2779 383.341 45.2779C381.575 45.2779 380.158 45.58 379.089 46.1841C378.02 46.7419 377.23 47.7643 376.719 49.2516C376.254 50.7388 376.021 52.8767 376.021 55.6652C376.021 58.082 376.207 60.0572 376.579 61.5909C376.951 63.0782 377.532 64.2168 378.322 65.0069C379.159 65.797 380.251 66.3315 381.599 66.6103C382.993 66.8892 384.666 67.0286 386.618 67.0286C388.245 67.0286 389.848 66.9357 391.428 66.7498C393.008 66.5174 394.658 66.0294 396.378 65.2858L397.772 65.9829V73.0937C396.471 73.605 394.984 74.0232 393.311 74.3486C391.637 74.6739 389.5 74.8366 386.897 74.8366C384.155 74.8366 381.552 74.5809 379.089 74.0697C376.672 73.5585 374.511 72.6522 372.606 71.3509C370.746 70.0031 369.259 68.1208 368.144 65.704C367.075 63.2408 366.54 60.1037 366.54 56.2927ZM429.913 39.2825V46.5327L428.518 47.2299C427.356 46.6721 426.032 46.2306 424.545 45.9053C423.104 45.58 421.5 45.4173 419.734 45.4173C418.944 45.4173 417.991 45.487 416.876 45.6264C415.807 45.7659 414.854 46.068 414.018 46.5327C413.228 46.9975 412.833 47.7178 412.833 48.6938C412.833 49.6698 413.297 50.4135 414.227 50.9247C415.156 51.4359 416.342 51.8542 417.782 52.1795C419.223 52.5049 420.757 52.8767 422.383 53.295C424.01 53.6668 425.544 54.2245 426.985 54.9681C428.425 55.7117 429.61 56.7807 430.54 58.1749C431.469 59.5227 431.934 61.3353 431.934 63.6126C431.934 66.3547 431.237 68.5623 429.843 70.2354C428.495 71.8621 426.636 73.0472 424.266 73.7909C421.942 74.488 419.339 74.8366 416.458 74.8366C413.902 74.8366 411.531 74.6042 409.347 74.1394C407.209 73.7211 405.396 73.2796 403.909 72.8149V65.216L405.304 64.5189C406.187 65.0766 407.488 65.6343 409.208 66.192C410.927 66.7498 413.228 67.0286 416.109 67.0286C417.411 67.0286 418.572 66.9589 419.595 66.8195C420.617 66.6336 421.431 66.3082 422.035 65.8435C422.639 65.3787 422.941 64.7513 422.941 63.9612C422.941 62.9387 422.476 62.1951 421.547 61.7303C420.664 61.2191 419.479 60.8241 417.991 60.5452C416.551 60.2664 415.017 59.941 413.39 59.5692C411.81 59.1974 410.276 58.6397 408.789 57.8961C407.348 57.1525 406.163 56.0603 405.234 54.6195C404.351 53.1323 403.909 51.1571 403.909 48.6938C403.909 46.6024 404.258 44.8363 404.955 43.3956C405.699 41.9548 406.744 40.8162 408.092 39.9796C409.486 39.143 411.113 38.5388 412.972 38.167C414.878 37.7952 416.992 37.6093 419.316 37.6093C421.547 37.6093 423.522 37.772 425.242 38.0973C427.008 38.3762 428.565 38.7712 429.913 39.2825ZM461.503 74L458.714 68.9806L450.558 57.8264H441.774V50.2275H450.209L457.39 41.7922L459.481 38.4459H471.332L458.296 53.9224L473.354 74H461.503ZM436.127 74L436.824 68.4229V28.8254L436.127 23.2483H446.863L446.166 28.8254V68.4229L446.863 74H436.127ZM480.361 74.8366C478.828 74.8366 477.55 74.395 476.527 73.512C475.551 72.5825 475.063 71.2579 475.063 69.5383C475.063 67.8652 475.551 66.5638 476.527 65.6343C477.55 64.7048 478.828 64.2401 480.361 64.2401C481.849 64.2401 483.104 64.7048 484.126 65.6343C485.148 66.5638 485.66 67.8652 485.66 69.5383C485.66 71.2579 485.148 72.5825 484.126 73.512C483.104 74.395 481.849 74.8366 480.361 74.8366ZM513.131 74L512.086 68.9109V52.6675C512.086 51.0409 511.923 49.6698 511.598 48.5544C511.319 47.439 510.552 46.6024 509.297 46.0447C508.089 45.4405 506.09 45.1384 503.302 45.1384C501.722 45.1384 500.211 45.2779 498.77 45.5567C497.376 45.7891 495.889 46.2306 494.309 46.8813L492.914 46.1841V39.2127C494.959 38.5156 496.934 38.0741 498.84 37.8882C500.746 37.7023 502.395 37.6093 503.79 37.6093C508.484 37.6093 512.086 38.167 514.595 39.2825C517.152 40.3514 518.918 41.9781 519.894 44.1624C520.87 46.3003 521.358 48.9959 521.358 52.2493V68.4229L521.915 74H513.131ZM503.371 74.8366C501.187 74.8366 499.049 74.5112 496.958 73.8606C494.913 73.1634 493.216 71.9783 491.869 70.3052C490.521 68.5856 489.847 66.1688 489.847 63.0549C489.847 60.5452 490.288 58.5467 491.171 57.0595C492.101 55.5258 493.286 54.3871 494.727 53.6435C496.168 52.8999 497.748 52.4119 499.467 52.1795C501.187 51.9007 502.883 51.7613 504.557 51.7613C505.347 51.7613 506.206 51.7845 507.136 51.831C508.065 51.831 509.018 51.8774 509.994 51.9704L516.129 55.0378V59.6389C514.828 58.9883 513.433 58.5467 511.946 58.3144C510.459 58.0355 508.763 57.8961 506.857 57.8961C504.069 57.8961 502.093 58.2447 500.931 58.9418C499.77 59.5925 499.189 60.8705 499.189 62.7761C499.189 64.7745 499.746 66.1223 500.862 66.8195C502.024 67.4701 503.72 67.7955 505.951 67.7955C509.065 67.7955 511.389 67.3307 512.922 66.4012C514.502 65.4717 515.641 64.3562 516.338 63.0549L516.687 65.5646L509.158 74.1394C508.182 74.3718 507.206 74.5345 506.23 74.6274C505.254 74.7669 504.301 74.8366 503.371 74.8366ZM537.141 33.6356C535.654 33.6356 534.399 33.1709 533.377 32.2414C532.354 31.2654 531.843 29.964 531.843 28.3374C531.843 26.7107 532.354 25.4326 533.377 24.5031C534.399 23.5271 535.654 23.0391 537.141 23.0391C538.628 23.0391 539.883 23.5271 540.906 24.5031C541.928 25.4326 542.44 26.7107 542.44 28.3374C542.44 29.964 541.928 31.2654 540.906 32.2414C539.883 33.1709 538.628 33.6356 537.141 33.6356ZM532.401 74L533.098 68.4229V46.2539H525.15V38.4459H543.137L542.44 44.023V68.4229L543.137 74H532.401Z" fill="white"/>
<path d="M380.174 102.24C379.814 102.24 379.481 102.213 379.174 102.16C378.881 102.107 378.641 102.053 378.454 102L376.454 100.34V99.04C376.948 99.6933 377.474 100.153 378.034 100.42C378.594 100.673 379.201 100.8 379.854 100.8C380.534 100.8 381.101 100.673 381.554 100.42C382.021 100.167 382.368 99.76 382.594 99.2C382.821 98.64 382.934 97.9 382.934 96.98C382.934 95.6733 382.681 94.6867 382.174 94.02C381.668 93.34 380.861 93 379.754 93C378.981 93 378.314 93.1467 377.754 93.44C377.194 93.7333 376.734 94.0733 376.374 94.46V93.34L378.474 91.82C378.728 91.74 378.988 91.68 379.254 91.64C379.521 91.5867 379.801 91.56 380.094 91.56C380.921 91.56 381.674 91.7533 382.354 92.14C383.048 92.5267 383.601 93.1133 384.014 93.9C384.441 94.6867 384.654 95.6733 384.654 96.86C384.654 97.9133 384.474 98.8467 384.114 99.66C383.768 100.473 383.261 101.107 382.594 101.56C381.928 102.013 381.121 102.24 380.174 102.24ZM375.294 102L375.494 100.4V89.04L375.294 87.44H377.374L377.174 89.04V100.96L376.874 102H375.294ZM386.592 104.72C386.699 104.8 386.805 104.853 386.912 104.88C387.032 104.907 387.145 104.92 387.252 104.92C387.559 104.92 387.839 104.833 388.092 104.66C388.359 104.5 388.559 104.247 388.692 103.9L389.272 102.34L385.052 91.8H386.972L387.412 93.28L389.852 99.64L390.032 100.78H390.152L390.332 99.64L392.532 93.28L392.972 91.8H394.892L390.092 104.38C389.905 104.873 389.659 105.267 389.352 105.56C389.045 105.853 388.712 106.067 388.352 106.2C387.992 106.333 387.625 106.4 387.252 106.4C387.065 106.4 386.899 106.38 386.752 106.34C386.619 106.313 386.485 106.273 386.352 106.22V104.92L386.592 104.72ZM400.445 102L400.645 100.4V89.6L400.445 88H408.625V89.76L407.425 89.56H402.345V94.14H408.005V95.78L406.805 95.62H402.345V100.44H407.425L408.625 100.24V102H400.445ZM414.776 102.24C413.989 102.253 413.223 102.173 412.476 102C411.729 101.827 411.063 101.6 410.476 101.32V99.8L410.876 99.6C411.423 99.9333 411.983 100.193 412.556 100.38C413.143 100.553 413.809 100.64 414.556 100.64C415.556 100.64 416.343 100.467 416.916 100.12C417.489 99.7733 417.776 99.2533 417.776 98.56C417.776 98.08 417.649 97.68 417.396 97.36C417.143 97.0267 416.803 96.74 416.376 96.5C415.949 96.26 415.483 96.04 414.976 95.84C414.483 95.6267 413.983 95.4067 413.476 95.18C412.969 94.94 412.503 94.66 412.076 94.34C411.649 94.02 411.309 93.6267 411.056 93.16C410.803 92.6933 410.676 92.12 410.676 91.44C410.676 90.5733 410.883 89.8733 411.296 89.34C411.723 88.7933 412.276 88.3933 412.956 88.14C413.636 87.8867 414.363 87.76 415.136 87.76C415.669 87.76 416.236 87.82 416.836 87.94C417.436 88.0467 418.029 88.2267 418.616 88.48V90L418.216 90.2C417.763 89.92 417.283 89.7133 416.776 89.58C416.283 89.4333 415.776 89.36 415.256 89.36C414.709 89.36 414.223 89.44 413.796 89.6C413.369 89.7467 413.036 89.9733 412.796 90.28C412.556 90.5733 412.436 90.9467 412.436 91.4C412.436 91.8667 412.563 92.26 412.816 92.58C413.069 92.9 413.409 93.18 413.836 93.42C414.263 93.6467 414.729 93.8667 415.236 94.08C415.743 94.28 416.243 94.5 416.736 94.74C417.243 94.9667 417.709 95.2467 418.136 95.58C418.563 95.9 418.903 96.3 419.156 96.78C419.409 97.2467 419.536 97.82 419.536 98.5C419.536 99.18 419.403 99.76 419.136 100.24C418.883 100.707 418.529 101.087 418.076 101.38C417.636 101.673 417.129 101.887 416.556 102.02C415.996 102.167 415.403 102.24 414.776 102.24ZM427.431 102.24C426.631 102.24 425.845 102.113 425.071 101.86C424.298 101.607 423.605 101.207 422.991 100.66C422.378 100.1 421.885 99.36 421.511 98.44C421.151 97.52 420.971 96.3933 420.971 95.06C420.971 93.7133 421.151 92.5733 421.511 91.64C421.885 90.7067 422.378 89.96 422.991 89.4C423.605 88.8267 424.298 88.4133 425.071 88.16C425.845 87.8933 426.631 87.76 427.431 87.76C428.231 87.76 429.018 87.8933 429.791 88.16C430.565 88.4133 431.258 88.8267 431.871 89.4C432.485 89.96 432.971 90.7067 433.331 91.64C433.705 92.5733 433.891 93.7133 433.891 95.06C433.891 96.3933 433.705 97.52 433.331 98.44C432.971 99.36 432.485 100.1 431.871 100.66C431.258 101.207 430.565 101.607 429.791 101.86C429.031 102.113 428.245 102.24 427.431 102.24ZM427.411 100.72C428.265 100.72 429.045 100.533 429.751 100.16C430.458 99.7867 431.025 99.1867 431.451 98.36C431.878 97.52 432.091 96.4 432.091 95C432.091 93.6133 431.878 92.5 431.451 91.66C431.038 90.82 430.478 90.2133 429.771 89.84C429.065 89.4667 428.285 89.28 427.431 89.28C426.578 89.28 425.798 89.4667 425.091 89.84C424.385 90.2133 423.818 90.82 423.391 91.66C422.978 92.5 422.771 93.6133 422.771 95C422.771 96.3867 422.978 97.5 423.391 98.34C423.818 99.18 424.378 99.7867 425.071 100.16C425.778 100.533 426.558 100.72 427.411 100.72ZM438.556 102L443.856 88H445.776L451.076 102H449.156L448.676 100.4L445.076 90.52L444.896 89.24H444.736L444.556 90.52L440.956 100.4L440.476 102H438.556ZM440.996 97.96V96.4H448.596V97.96H440.996ZM455.646 102.24C455.233 102.24 454.799 102.187 454.346 102.08C453.906 101.973 453.493 101.793 453.106 101.54C452.733 101.273 452.426 100.913 452.186 100.46C451.959 99.9933 451.846 99.4 451.846 98.68V93.4L451.646 91.8H453.726L453.526 93.4V98.42C453.526 99.0867 453.633 99.5933 453.846 99.94C454.073 100.287 454.366 100.52 454.726 100.64C455.099 100.747 455.506 100.8 455.946 100.8C456.799 100.8 457.459 100.673 457.926 100.42C458.393 100.153 458.806 99.8333 459.166 99.46V100.58L457.346 101.98C457.093 102.06 456.826 102.12 456.546 102.16C456.266 102.213 455.966 102.24 455.646 102.24ZM459.026 102L458.806 100.74V93.4L458.606 91.8H460.686L460.486 93.4V100.4L460.686 102H459.026ZM463.676 99.14V90.36L463.576 88.96H465.456L465.356 90.36V99.1C465.356 99.74 465.496 100.187 465.776 100.44C466.07 100.68 466.496 100.8 467.056 100.8C467.323 100.8 467.55 100.773 467.736 100.72C467.936 100.667 468.123 100.593 468.296 100.5L468.616 100.7V101.94C468.323 102.047 468.023 102.12 467.716 102.16C467.423 102.213 467.136 102.24 466.856 102.24C466.323 102.24 465.81 102.153 465.316 101.98C464.836 101.793 464.443 101.48 464.136 101.04C463.83 100.587 463.676 99.9533 463.676 99.14ZM461.956 93.3V91.8H463.236L464.516 92.4L465.796 91.8H468.416V93.3L467.416 93.2H462.956L461.956 93.3ZM474.126 102.24C473.326 102.24 472.56 102.067 471.826 101.72C471.093 101.373 470.493 100.807 470.026 100.02C469.573 99.2333 469.346 98.1933 469.346 96.9C469.346 95.9133 469.48 95.08 469.746 94.4C470.013 93.72 470.373 93.1733 470.826 92.76C471.28 92.3333 471.793 92.0267 472.366 91.84C472.94 91.6533 473.526 91.56 474.126 91.56C474.726 91.56 475.313 91.6533 475.886 91.84C476.46 92.0267 476.973 92.3333 477.426 92.76C477.88 93.1733 478.24 93.72 478.506 94.4C478.773 95.08 478.906 95.9133 478.906 96.9C478.906 98.1933 478.673 99.2333 478.206 100.02C477.753 100.807 477.16 101.373 476.426 101.72C475.706 102.067 474.94 102.24 474.126 102.24ZM474.126 100.8C475.073 100.8 475.82 100.507 476.366 99.92C476.913 99.3333 477.186 98.3133 477.186 96.86C477.186 95.8867 477.06 95.12 476.806 94.56C476.566 94 476.22 93.6 475.766 93.36C475.313 93.12 474.766 93 474.126 93C473.486 93 472.94 93.12 472.486 93.36C472.033 93.6 471.68 94 471.426 94.56C471.186 95.12 471.066 95.8867 471.066 96.86C471.066 98.3133 471.34 99.3333 471.886 99.92C472.433 100.507 473.18 100.8 474.126 100.8ZM493.305 102L493.505 100.4V95.38C493.505 94.6067 493.292 94.0333 492.865 93.66C492.439 93.2733 491.879 93.08 491.185 93.08C490.572 93.08 490.045 93.2 489.605 93.44C489.179 93.6667 488.825 93.9267 488.545 94.22C488.265 94.5133 488.059 94.7467 487.925 94.92V93.46L490.005 91.76C490.299 91.68 490.572 91.6267 490.825 91.6C491.092 91.5733 491.332 91.56 491.545 91.56C492.439 91.56 493.152 91.7133 493.685 92.02C494.219 92.3133 494.599 92.7067 494.825 93.2C495.065 93.6933 495.185 94.2333 495.185 94.82V100.4L495.385 102H493.305ZM480.505 102L480.705 100.4V93.4L480.505 91.8H482.005L482.385 93.96V100.4L482.585 102H480.505ZM486.905 102L487.105 100.4V95.38C487.105 94.6067 486.899 94.0333 486.485 93.66C486.072 93.2733 485.519 93.08 484.825 93.08C484.225 93.08 483.699 93.1933 483.245 93.42C482.805 93.6467 482.445 93.9 482.165 94.18C481.885 94.46 481.679 94.68 481.545 94.84V93.46L483.625 91.76C483.985 91.68 484.305 91.6267 484.585 91.6C484.879 91.5733 485.125 91.56 485.325 91.56C486.165 91.56 486.839 91.7133 487.345 92.02C487.852 92.3133 488.219 92.7067 488.445 93.2C488.672 93.6933 488.785 94.2333 488.785 94.82V100.4L488.985 102H486.905ZM503.9 102L503.6 100.94V95.5C503.6 94.9667 503.527 94.52 503.38 94.16C503.233 93.7867 502.947 93.5 502.52 93.3C502.093 93.1 501.46 93 500.62 93C500.127 93 499.667 93.0467 499.24 93.14C498.827 93.2333 498.427 93.4067 498.04 93.66L497.72 93.46V92.02C498.307 91.8333 498.853 91.7133 499.36 91.66C499.88 91.5933 500.36 91.56 500.8 91.56C501.96 91.56 502.86 91.7133 503.5 92.02C504.153 92.3267 504.613 92.78 504.88 93.38C505.147 93.9667 505.28 94.6933 505.28 95.56V100.4L505.48 102H503.9ZM500.52 102.24C499.933 102.24 499.353 102.147 498.78 101.96C498.207 101.76 497.727 101.427 497.34 100.96C496.967 100.48 496.78 99.8267 496.78 99C496.78 98.36 496.9 97.8267 497.14 97.4C497.38 96.9733 497.7 96.64 498.1 96.4C498.513 96.16 498.973 95.9933 499.48 95.9C499.987 95.7933 500.507 95.74 501.04 95.74C501.36 95.74 501.653 95.7533 501.92 95.78C502.2 95.8067 502.473 95.8533 502.74 95.92L503.78 96.66V97.58C503.433 97.3933 503.06 97.2667 502.66 97.2C502.273 97.12 501.827 97.08 501.32 97.08C500.387 97.08 499.673 97.22 499.18 97.5C498.7 97.7667 498.46 98.2733 498.46 99.02C498.46 99.6333 498.64 100.093 499 100.4C499.36 100.693 499.94 100.84 500.74 100.84C501.567 100.84 502.22 100.707 502.7 100.44C503.193 100.173 503.573 99.8533 503.84 99.48L504.24 100.38L502.32 102C502.053 102.067 501.767 102.12 501.46 102.16C501.153 102.213 500.84 102.24 500.52 102.24ZM508.036 99.14V90.36L507.936 88.96H509.816L509.716 90.36V99.1C509.716 99.74 509.856 100.187 510.136 100.44C510.429 100.68 510.856 100.8 511.416 100.8C511.682 100.8 511.909 100.773 512.096 100.72C512.296 100.667 512.482 100.593 512.656 100.5L512.976 100.7V101.94C512.682 102.047 512.382 102.12 512.076 102.16C511.782 102.213 511.496 102.24 511.216 102.24C510.682 102.24 510.169 102.153 509.676 101.98C509.196 101.793 508.802 101.48 508.496 101.04C508.189 100.587 508.036 99.9533 508.036 99.14ZM506.316 93.3V91.8H507.596L508.876 92.4L510.156 91.8H512.776V93.3L511.776 93.2H507.316L506.316 93.3ZM516.343 90.12C516.023 90.12 515.75 90.02 515.523 89.82C515.296 89.6067 515.183 89.32 515.183 88.96C515.183 88.6 515.296 88.32 515.523 88.12C515.75 87.9067 516.023 87.8 516.343 87.8C516.663 87.8 516.936 87.9067 517.163 88.12C517.39 88.32 517.503 88.6 517.503 88.96C517.503 89.32 517.39 89.6067 517.163 89.82C516.936 90.02 516.663 90.12 516.343 90.12ZM515.623 102L515.823 100.4V93.16H513.743V91.8H517.703L517.503 93.4V100.4L517.703 102H515.623ZM524.205 102.24C523.405 102.24 522.638 102.067 521.905 101.72C521.171 101.373 520.571 100.807 520.105 100.02C519.651 99.2333 519.425 98.1933 519.425 96.9C519.425 95.9133 519.558 95.08 519.825 94.4C520.091 93.72 520.451 93.1733 520.905 92.76C521.358 92.3333 521.871 92.0267 522.445 91.84C523.018 91.6533 523.605 91.56 524.205 91.56C524.805 91.56 525.391 91.6533 525.965 91.84C526.538 92.0267 527.051 92.3333 527.505 92.76C527.958 93.1733 528.318 93.72 528.585 94.4C528.851 95.08 528.985 95.9133 528.985 96.9C528.985 98.1933 528.751 99.2333 528.285 100.02C527.831 100.807 527.238 101.373 526.505 101.72C525.785 102.067 525.018 102.24 524.205 102.24ZM524.205 100.8C525.151 100.8 525.898 100.507 526.445 99.92C526.991 99.3333 527.265 98.3133 527.265 96.86C527.265 95.8867 527.138 95.12 526.885 94.56C526.645 94 526.298 93.6 525.845 93.36C525.391 93.12 524.845 93 524.205 93C523.565 93 523.018 93.12 522.565 93.36C522.111 93.6 521.758 94 521.505 94.56C521.265 95.12 521.145 95.8867 521.145 96.86C521.145 98.3133 521.418 99.3333 521.965 99.92C522.511 100.507 523.258 100.8 524.205 100.8ZM537.543 102L537.743 100.4V95.3C537.743 94.5667 537.537 94.0133 537.123 93.64C536.71 93.2667 536.097 93.08 535.283 93.08C534.643 93.08 534.097 93.1733 533.643 93.36C533.19 93.5467 532.817 93.76 532.523 94C532.243 94.2267 532.03 94.42 531.883 94.58V93.42L534.043 91.78C534.31 91.7133 534.583 91.66 534.863 91.62C535.143 91.58 535.43 91.56 535.723 91.56C536.363 91.56 536.963 91.6733 537.523 91.9C538.083 92.1133 538.537 92.4867 538.883 93.02C539.243 93.5533 539.423 94.2933 539.423 95.24V100.4L539.623 102H537.543ZM530.583 102L530.783 100.4V93.36L530.583 91.8H532.183L532.463 92.98V100.4L532.663 102H530.583ZM548.058 92.04V93.56L547.738 93.76C547.365 93.52 546.952 93.3333 546.498 93.2C546.045 93.0667 545.525 93 544.938 93C544.538 93 544.172 93.04 543.838 93.12C543.518 93.1867 543.258 93.3133 543.058 93.5C542.872 93.6733 542.778 93.92 542.778 94.24C542.778 94.6267 542.918 94.9333 543.198 95.16C543.478 95.3867 543.838 95.58 544.278 95.74C544.732 95.9 545.205 96.06 545.698 96.22C546.192 96.38 546.658 96.58 547.098 96.82C547.552 97.06 547.918 97.38 548.198 97.78C548.478 98.18 548.618 98.7 548.618 99.34C548.618 100.1 548.418 100.693 548.018 101.12C547.632 101.533 547.118 101.827 546.478 102C545.838 102.16 545.158 102.24 544.438 102.24C543.705 102.24 543.058 102.18 542.498 102.06C541.938 101.94 541.458 101.813 541.058 101.68V100.2L541.378 100C541.805 100.253 542.265 100.453 542.758 100.6C543.252 100.733 543.858 100.8 544.578 100.8C544.992 100.8 545.378 100.767 545.738 100.7C546.098 100.633 546.392 100.5 546.618 100.3C546.858 100.1 546.978 99.8067 546.978 99.42C546.978 98.98 546.838 98.6333 546.558 98.38C546.278 98.1267 545.912 97.92 545.458 97.76C545.018 97.6 544.545 97.4467 544.038 97.3C543.545 97.1533 543.072 96.9733 542.618 96.76C542.178 96.5333 541.818 96.2267 541.538 95.84C541.258 95.4533 541.118 94.9467 541.118 94.32C541.118 93.7467 541.232 93.28 541.458 92.92C541.698 92.56 542.012 92.28 542.398 92.08C542.798 91.88 543.232 91.7467 543.698 91.68C544.178 91.6 544.658 91.56 545.138 91.56C545.725 91.56 546.258 91.6067 546.738 91.7C547.232 91.78 547.672 91.8933 548.058 92.04Z" fill="white" fill-opacity="0.84"/>
</svg>
